<svg xmlns="http://www.w3.org/2000/svg" xmlns:xlink="http://www.w3.org/1999/xlink" viewBox="0 0 99.21 59.76" width="100%" height="100%" preserveAspectRatio="none"><defs><style>.cls-1{isolation:isolate;}.cls-2{fill:#ffce55;}.cls-3{fill:#ffe554;}.cls-4,.cls-8,.cls-9{fill:#ffed94;}.cls-5,.cls-8,.cls-82{opacity:0.5;}.cls-5,.cls-7,.cls-81,.cls-83{mix-blend-mode:multiply;}.cls-6,.cls-7{fill:#fca611;}.cls-7{opacity:0.63;}.cls-9{opacity:0.65;}.cls-10{fill:url(#linear-gradient);}.cls-11{fill:url(#linear-gradient-2);}.cls-12{fill:#ce3f00;}.cls-13{fill:#ffc325;}.cls-14{fill:url(#linear-gradient-3);}.cls-15{fill:url(#linear-gradient-4);}.cls-16{fill:url(#linear-gradient-5);}.cls-17{fill:url(#linear-gradient-6);}.cls-18{fill:url(#linear-gradient-7);}.cls-19{fill:url(#linear-gradient-8);}.cls-20{fill:url(#linear-gradient-9);}.cls-21{fill:url(#linear-gradient-10);}.cls-22{fill:url(#linear-gradient-11);}.cls-23{fill:url(#linear-gradient-12);}.cls-24{fill:url(#linear-gradient-13);}.cls-25{fill:url(#linear-gradient-14);}.cls-26{fill:url(#linear-gradient-15);}.cls-27{fill:url(#linear-gradient-16);}.cls-28{fill:url(#linear-gradient-17);}.cls-29{fill:url(#linear-gradient-18);}.cls-30{fill:url(#linear-gradient-19);}.cls-31{fill:url(#linear-gradient-20);}.cls-32{fill:url(#linear-gradient-21);}.cls-33{fill:url(#linear-gradient-22);}.cls-34{fill:url(#linear-gradient-23);}.cls-35{fill:url(#linear-gradient-24);}.cls-36{fill:url(#linear-gradient-25);}.cls-37{fill:url(#linear-gradient-26);}.cls-38{fill:url(#linear-gradient-27);}.cls-39{fill:url(#linear-gradient-28);}.cls-40{fill:url(#linear-gradient-29);}.cls-41{fill:url(#linear-gradient-30);}.cls-42{fill:url(#linear-gradient-31);}.cls-43{fill:url(#linear-gradient-32);}.cls-44{fill:url(#linear-gradient-33);}.cls-45{fill:url(#linear-gradient-34);}.cls-46{fill:url(#linear-gradient-35);}.cls-47{fill:url(#linear-gradient-36);}.cls-48{fill:url(#linear-gradient-37);}.cls-49{fill:url(#linear-gradient-38);}.cls-50{fill:url(#linear-gradient-39);}.cls-51{fill:url(#linear-gradient-40);}.cls-52{fill:url(#linear-gradient-41);}.cls-53{fill:url(#linear-gradient-42);}.cls-54{fill:url(#linear-gradient-43);}.cls-55{fill:url(#linear-gradient-44);}.cls-56{fill:url(#linear-gradient-45);}.cls-57{fill:url(#linear-gradient-46);}.cls-58{fill:url(#linear-gradient-47);}.cls-59{fill:url(#linear-gradient-48);}.cls-60{fill:url(#linear-gradient-49);}.cls-61{fill:url(#linear-gradient-50);}.cls-62{fill:url(#linear-gradient-51);}.cls-63{fill:url(#linear-gradient-52);}.cls-64{fill:url(#linear-gradient-53);}.cls-65{fill:url(#linear-gradient-54);}.cls-66{fill:url(#linear-gradient-55);}.cls-67{fill:url(#linear-gradient-56);}.cls-68{fill:url(#linear-gradient-57);}.cls-69{fill:url(#linear-gradient-58);}.cls-70{fill:url(#linear-gradient-59);}.cls-71{fill:url(#linear-gradient-60);}.cls-72{fill:url(#linear-gradient-61);}.cls-73{fill:url(#linear-gradient-62);}.cls-74{fill:url(#linear-gradient-63);}.cls-75{fill:url(#linear-gradient-64);}.cls-76{fill:url(#linear-gradient-65);}.cls-77{fill:url(#linear-gradient-66);}.cls-78{fill:url(#linear-gradient-67);}.cls-79{fill:url(#linear-gradient-68);}.cls-80,.cls-82{mix-blend-mode:soft-light;}.cls-81{opacity:0.4;}.cls-83{opacity:0.7;}</style><linearGradient id="linear-gradient" x1="195.11" y1="36.83" x2="295.93" y2="128.56" gradientTransform="matrix(0.72, 0.02, -0.01, 1.38, -102.27, -92.92)" gradientUnits="userSpaceOnUse"><stop offset="0" stop-color="#ffed94"/><stop offset="0.41" stop-color="#fca611"/><stop offset="0.46" stop-color="#ffed94"/><stop offset="0.99" stop-color="#e85c4b"/></linearGradient><linearGradient id="linear-gradient-2" x1="224.47" y1="84.05" x2="269.15" y2="84.05" gradientTransform="matrix(0.6, -0.41, 0.81, 1.12, -139.32, 35.45)" gradientUnits="userSpaceOnUse"><stop offset="0" stop-color="#ffed94"/><stop offset="0.3" stop-color="#ffed94"/><stop offset="0.41" stop-color="#fca611"/><stop offset="0.46" stop-color="#ffed94"/><stop offset="0.99" stop-color="#e85c4b"/></linearGradient><linearGradient id="linear-gradient-3" x1="281.44" y1="69.2" x2="246.75" y2="105.23" xlink:href="#linear-gradient-2"/><linearGradient id="linear-gradient-4" x1="260.35" y1="48.89" x2="225.65" y2="84.93" xlink:href="#linear-gradient-2"/><linearGradient id="linear-gradient-5" x1="260.74" y1="49.27" x2="226.05" y2="85.31" xlink:href="#linear-gradient-2"/><linearGradient id="linear-gradient-6" x1="281.05" y1="68.82" x2="246.35" y2="104.86" xlink:href="#linear-gradient-2"/><linearGradient id="linear-gradient-7" x1="271.17" y1="59.31" x2="236.47" y2="95.35" xlink:href="#linear-gradient-2"/><linearGradient id="linear-gradient-8" x1="270.62" y1="58.77" x2="235.92" y2="94.82" xlink:href="#linear-gradient-2"/><linearGradient id="linear-gradient-9" x1="285.53" y1="73.13" x2="250.83" y2="109.18" xlink:href="#linear-gradient-2"/><linearGradient id="linear-gradient-10" x1="256.26" y1="44.95" x2="221.56" y2="80.99" xlink:href="#linear-gradient-2"/><linearGradient id="linear-gradient-11" x1="284.59" y1="72.22" x2="249.89" y2="108.26" xlink:href="#linear-gradient-2"/><linearGradient id="linear-gradient-12" x1="257.21" y1="45.86" x2="222.51" y2="81.9" xlink:href="#linear-gradient-2"/><linearGradient id="linear-gradient-13" x1="265.71" y1="54.05" x2="231.01" y2="90.09" xlink:href="#linear-gradient-2"/><linearGradient id="linear-gradient-14" x1="276.09" y1="64.04" x2="241.39" y2="100.08" xlink:href="#linear-gradient-2"/><linearGradient id="linear-gradient-15" x1="276.91" y1="64.83" x2="242.21" y2="100.87" xlink:href="#linear-gradient-2"/><linearGradient id="linear-gradient-16" x1="264.89" y1="53.26" x2="230.19" y2="89.3" xlink:href="#linear-gradient-2"/><linearGradient id="linear-gradient-17" x1="284.25" y1="71.9" x2="249.55" y2="107.94" xlink:href="#linear-gradient-2"/><linearGradient id="linear-gradient-18" x1="257.55" y1="46.19" x2="222.85" y2="82.23" xlink:href="#linear-gradient-2"/><linearGradient id="linear-gradient-19" x1="283.33" y1="71.01" x2="248.63" y2="107.05" xlink:href="#linear-gradient-2"/><linearGradient id="linear-gradient-20" x1="258.47" y1="47.08" x2="223.77" y2="83.12" xlink:href="#linear-gradient-2"/><linearGradient id="linear-gradient-21" x1="263.16" y1="51.6" x2="228.46" y2="87.63" xlink:href="#linear-gradient-2"/><linearGradient id="linear-gradient-22" x1="278.63" y1="66.49" x2="243.93" y2="102.53" xlink:href="#linear-gradient-2"/><linearGradient id="linear-gradient-23" x1="274.21" y1="62.24" x2="239.52" y2="98.28" xlink:href="#linear-gradient-2"/><linearGradient id="linear-gradient-24" x1="267.58" y1="55.85" x2="232.88" y2="91.89" xlink:href="#linear-gradient-2"/><linearGradient id="linear-gradient-25" x1="285.16" y1="72.77" x2="250.46" y2="108.81" xlink:href="#linear-gradient-2"/><linearGradient id="linear-gradient-26" x1="256.64" y1="45.32" x2="221.94" y2="81.36" xlink:href="#linear-gradient-2"/><linearGradient id="linear-gradient-27" x1="285.36" y1="72.98" x2="250.67" y2="109.01" xlink:href="#linear-gradient-2"/><linearGradient id="linear-gradient-28" x1="256.43" y1="45.12" x2="221.73" y2="81.15" xlink:href="#linear-gradient-2"/><linearGradient id="linear-gradient-29" x1="268.67" y1="56.9" x2="233.97" y2="92.94" xlink:href="#linear-gradient-2"/><linearGradient id="linear-gradient-30" x1="273.13" y1="61.19" x2="238.43" y2="97.23" xlink:href="#linear-gradient-2"/><linearGradient id="linear-gradient-31" x1="279.55" y1="67.38" x2="244.86" y2="103.42" xlink:href="#linear-gradient-2"/><linearGradient id="linear-gradient-32" x1="262.24" y1="50.71" x2="227.54" y2="86.75" xlink:href="#linear-gradient-2"/><linearGradient id="linear-gradient-33" x1="282.7" y1="70.41" x2="248" y2="106.45" xlink:href="#linear-gradient-2"/><linearGradient id="linear-gradient-34" x1="259.09" y1="47.68" x2="224.39" y2="83.72" xlink:href="#linear-gradient-2"/><linearGradient id="linear-gradient-35" x1="282.47" y1="70.19" x2="247.77" y2="106.23" xlink:href="#linear-gradient-2"/><linearGradient id="linear-gradient-36" x1="259.32" y1="47.9" x2="224.62" y2="83.94" xlink:href="#linear-gradient-2"/><linearGradient id="linear-gradient-37" x1="261.94" y1="50.42" x2="227.24" y2="86.46" xlink:href="#linear-gradient-2"/><linearGradient id="linear-gradient-38" x1="279.86" y1="67.67" x2="245.16" y2="103.71" xlink:href="#linear-gradient-2"/><linearGradient id="linear-gradient-39" x1="272.75" y1="60.82" x2="238.05" y2="96.87" xlink:href="#linear-gradient-2"/><linearGradient id="linear-gradient-40" x1="269.05" y1="57.26" x2="234.35" y2="93.3" xlink:href="#linear-gradient-2"/><linearGradient id="linear-gradient-41" x1="285.42" y1="73.02" x2="250.72" y2="109.07" xlink:href="#linear-gradient-2"/><linearGradient id="linear-gradient-42" x1="256.38" y1="45.06" x2="221.68" y2="81.1" xlink:href="#linear-gradient-2"/><linearGradient id="linear-gradient-43" x1="285.06" y1="72.68" x2="250.37" y2="108.72" xlink:href="#linear-gradient-2"/><linearGradient id="linear-gradient-44" x1="256.73" y1="45.41" x2="222.03" y2="81.44" xlink:href="#linear-gradient-2"/><linearGradient id="linear-gradient-45" x1="267.21" y1="55.49" x2="232.51" y2="91.53" xlink:href="#linear-gradient-2"/><linearGradient id="linear-gradient-46" x1="274.58" y1="62.59" x2="239.89" y2="98.63" xlink:href="#linear-gradient-2"/><linearGradient id="linear-gradient-47" x1="278.31" y1="66.18" x2="243.61" y2="102.22" xlink:href="#linear-gradient-2"/><linearGradient id="linear-gradient-48" x1="263.49" y1="51.91" x2="228.79" y2="87.95" xlink:href="#linear-gradient-2"/><linearGradient id="linear-gradient-49" x1="283.52" y1="71.2" x2="248.82" y2="107.24" xlink:href="#linear-gradient-2"/><linearGradient id="linear-gradient-50" x1="258.27" y1="46.89" x2="223.57" y2="82.93" xlink:href="#linear-gradient-2"/><linearGradient id="linear-gradient-51" x1="284.09" y1="71.74" x2="249.39" y2="107.78" xlink:href="#linear-gradient-2"/><linearGradient id="linear-gradient-52" x1="257.71" y1="46.35" x2="223.01" y2="82.39" xlink:href="#linear-gradient-2"/><linearGradient id="linear-gradient-53" x1="264.54" y1="52.93" x2="229.85" y2="88.96" xlink:href="#linear-gradient-2"/><linearGradient id="linear-gradient-54" x1="277.25" y1="65.16" x2="242.55" y2="101.2" xlink:href="#linear-gradient-2"/><linearGradient id="linear-gradient-55" x1="275.73" y1="63.7" x2="241.03" y2="99.74" xlink:href="#linear-gradient-2"/><linearGradient id="linear-gradient-56" x1="266.06" y1="54.4" x2="231.37" y2="90.43" xlink:href="#linear-gradient-2"/><linearGradient id="linear-gradient-57" x1="284.72" y1="72.35" x2="250.02" y2="108.39" xlink:href="#linear-gradient-2"/><linearGradient id="linear-gradient-58" x1="257.08" y1="45.74" x2="222.38" y2="81.78" xlink:href="#linear-gradient-2"/><linearGradient id="linear-gradient-59" x1="285.52" y1="73.12" x2="250.82" y2="109.16" xlink:href="#linear-gradient-2"/><linearGradient id="linear-gradient-60" x1="256.27" y1="44.97" x2="221.58" y2="81" xlink:href="#linear-gradient-2"/><linearGradient id="linear-gradient-61" x1="270.24" y1="58.41" x2="235.54" y2="94.45" xlink:href="#linear-gradient-2"/><linearGradient id="linear-gradient-62" x1="271.56" y1="59.67" x2="236.86" y2="95.72" xlink:href="#linear-gradient-2"/><linearGradient id="linear-gradient-63" x1="280.77" y1="68.55" x2="246.07" y2="104.59" xlink:href="#linear-gradient-2"/><linearGradient id="linear-gradient-64" x1="261.02" y1="49.54" x2="226.32" y2="85.57" xlink:href="#linear-gradient-2"/><linearGradient id="linear-gradient-65" x1="281.71" y1="69.45" x2="247" y2="105.49" xlink:href="#linear-gradient-2"/><linearGradient id="linear-gradient-66" x1="260.09" y1="48.64" x2="225.39" y2="84.68" xlink:href="#linear-gradient-2"/><linearGradient id="linear-gradient-67" x1="241.45" y1="70.48" x2="248.6" y2="88.92" gradientTransform="matrix(0.6, -0.41, 0.81, 1.12, -139.32, 35.45)" gradientUnits="userSpaceOnUse"><stop offset="0" stop-color="#ffed94"/><stop offset="0.41" stop-color="#fca611"/><stop offset="0.46" stop-color="#ffed94"/><stop offset="0.99" stop-color="#e78900"/></linearGradient><linearGradient id="linear-gradient-68" x1="241.58" y1="63.88" x2="255.06" y2="116.93" xlink:href="#linear-gradient-2"/></defs><g class="cls-1"><g id="Layer_1"><path class="cls-2" d="M62.18,11.84H6C2.68,11.84,0,9.66,0,7H0C0,4.34,2.68,2.16,6,2.16H62.18c3.27,0,5.95,2.18,5.95,4.84h0C68.13,9.66,65.45,11.84,62.18,11.84Z"/><rect class="cls-3" x="33.89" y="2.16" width="27.61" height="9.68"/><rect class="cls-4" x="30.32" y="2.16" width="2.18" height="9.68"/><rect class="cls-3" x="27.74" y="2.16" width="1.18" height="9.68"/><g class="cls-5"><path class="cls-6" d="M6,11.84H62.18c3.27,0,5.95-2.18,5.95-4.84H0C0,9.66,2.68,11.84,6,11.84Z"/></g><path class="cls-2" d="M62.18,21.38H6C2.68,21.38,0,19.21,0,16.54H0c0-2.66,2.68-4.83,6-4.83H62.18c3.27,0,5.95,2.17,5.95,4.83h0C68.13,19.21,65.45,21.38,62.18,21.38Z"/><rect class="cls-3" x="33.89" y="11.71" width="27.61" height="9.68"/><rect class="cls-4" x="30.32" y="11.71" width="2.18" height="9.68"/><rect class="cls-3" x="27.74" y="11.71" width="1.18" height="9.68"/><g class="cls-5"><path class="cls-6" d="M6,21.38H62.18c3.27,0,5.95-2.17,5.95-4.84H0C0,19.21,2.68,21.38,6,21.38Z"/></g><path class="cls-2" d="M62.18,31H6C2.68,31,0,28.79,0,26.13H0c0-2.66,2.68-4.84,6-4.84H62.18c3.27,0,5.95,2.18,5.95,4.84h0C68.13,28.79,65.45,31,62.18,31Z"/><rect class="cls-3" x="33.89" y="21.29" width="27.61" height="9.68"/><rect class="cls-4" x="30.32" y="21.29" width="2.18" height="9.68"/><rect class="cls-3" x="27.74" y="21.29" width="1.18" height="9.68"/><g class="cls-5"><path class="cls-6" d="M6,31H62.18c3.27,0,5.95-2.17,5.95-4.83H0C0,28.79,2.68,31,6,31Z"/></g><path class="cls-2" d="M62.18,40.57H6C2.68,40.57,0,38.39,0,35.73H0c0-2.66,2.68-4.84,6-4.84H62.18c3.27,0,5.95,2.18,5.95,4.84h0C68.13,38.39,65.45,40.57,62.18,40.57Z"/><rect class="cls-3" x="33.89" y="30.89" width="27.61" height="9.68"/><rect class="cls-4" x="30.32" y="30.89" width="2.18" height="9.68"/><rect class="cls-3" x="27.74" y="30.89" width="1.18" height="9.68"/><g class="cls-5"><path class="cls-6" d="M6,40.57H62.18c3.27,0,5.95-2.18,5.95-4.84H0C0,38.39,2.68,40.57,6,40.57Z"/></g><path class="cls-2" d="M62.18,50.18H6C2.68,50.18,0,48,0,45.35H0c0-2.67,2.68-4.84,6-4.84H62.18c3.27,0,5.95,2.17,5.95,4.84h0C68.13,48,65.45,50.18,62.18,50.18Z"/><rect class="cls-3" x="33.89" y="40.51" width="27.61" height="9.68"/><rect class="cls-4" x="30.32" y="40.51" width="2.18" height="9.68"/><rect class="cls-3" x="27.74" y="40.51" width="1.18" height="9.68"/><g class="cls-5"><path class="cls-6" d="M6,50.18H62.18c3.27,0,5.95-2.17,5.95-4.83H0C0,48,2.68,50.18,6,50.18Z"/></g><path class="cls-2" d="M62.18,59.76H6C2.68,59.76,0,57.59,0,54.93H0c0-2.66,2.68-4.84,6-4.84H62.18c3.27,0,5.95,2.18,5.95,4.84h0C68.13,57.59,65.45,59.76,62.18,59.76Z"/><rect class="cls-3" x="33.89" y="50.09" width="27.61" height="9.68"/><rect class="cls-4" x="30.32" y="50.09" width="2.18" height="9.68"/><rect class="cls-3" x="27.74" y="50.09" width="1.18" height="9.68"/><g class="cls-5"><path class="cls-6" d="M6,59.76H62.18c3.27,0,5.95-2.17,5.95-4.83H0C0,57.59,2.68,59.76,6,59.76Z"/></g><path class="cls-7" d="M62.18,59.76c3.27,0,5.95-2.17,5.95-4.83,0-2.45-2.26-4.48-5.16-4.79,2.9-.32,5.16-2.35,5.16-4.79s-2.33-4.54-5.3-4.81c3-.27,5.3-2.33,5.3-4.81s-2.31-4.52-5.26-4.8c2.95-.28,5.26-2.33,5.26-4.8S65.87,21.65,63,21.34c2.91-.32,5.17-2.35,5.17-4.8s-2.18-4.4-5-4.77c2.74-.35,4.87-2.24,5-4.53l-3.28-2.7-15,3.57s-10.57,11.3-1.14,51.65H62.18Z"/><path class="cls-2" d="M93.2,54.42c3.71-7.36.42-20.92-8.62-33.07C75.19,8.74,62.72,1.84,54.83,4.3l1.42-2.18L51.69,6h0c-7.18,5.88-4.48,22,6.1,36.24s25,21.12,32.45,15.7v0l.09-.07.18-.12c.25-.2.48-.41.71-.63l4.13-3.46Z"/><path class="cls-6" d="M90.26,57.92v0l.09-.07.18-.12c.25-.2.48-.41.71-.63l4.13-3.46-2.16.76a15.55,15.55,0,0,0,1.49-6.61l-3.81-5.26-13.4,7.19-6.89,5C78.11,59.85,85.56,61.34,90.26,57.92Z"/><path class="cls-3" d="M73.12,56.32l6.32-4.58L79,51.15l-6.58,4.77Z"/><path class="cls-8" d="M69.33,53.84l4.89-3.55L72,47.22l-2.31-.63-4.85,3.52A48.45,48.45,0,0,0,69.33,53.84Z"/><path class="cls-9" d="M52.06,32.83l4.72-3.42-.37-6-3.76-5.95-4.58,3.32A43.9,43.9,0,0,0,52.06,32.83Z"/><ellipse class="cls-10" cx="75.69" cy="27.98" rx="16.96" ry="32.36" transform="translate(-1.92 50.08) rotate(-36.18)"/><path class="cls-11" d="M93.6,53.11c-7.15,4.94-20.81-1.7-30.78-15.1C52.66,24.37,50.12,8.8,57.15,3.32c.14-.11.27-.21.41-.3,3.4-2.35,8.35-2.18,14,.51,5.89,2.8,11.85,8,16.77,14.59h0c4.92,6.61,8.22,13.86,9.29,20.41S97.41,50.16,94,52.81ZM57.67,3.18l-.4.29C50.28,8.92,52.8,24.39,62.9,38c9.9,13.31,23.48,19.91,30.58,15l.4-.29C97.27,50,98.55,45,97.49,38.46s-4.35-13.71-9.23-20.28S77.45,6.46,71.6,3.69C66,1,61.05.84,57.67,3.18Z"/><path class="cls-12" d="M92.8,52C86,56.73,72.91,50.38,63.38,37.57,53.67,24.53,51.24,9.65,58,4.41c3.24-2.55,8.15-2.47,13.78.2s11.32,7.63,16,13.94c9.71,13.05,12.14,27.93,5.42,33.17ZM58.64,4.52l-.38.28C51.65,10,54,24.59,63.58,37.42S86.3,56.49,92.89,51.33s4.23-19.79-5.32-32.62C82.94,12.5,77.35,7.63,71.81,5,66.49,2.48,61.84,2.32,58.64,4.52Z"/><ellipse class="cls-6" cx="75.58" cy="28.06" rx="15.28" ry="29.15" transform="translate(-1.99 50.03) rotate(-36.18)"/><path class="cls-13" d="M86.76,19.34c8.92,12,11.15,25.61,5,30.42s-18.42-1-27.34-13-11.14-25.61-5-30.42S77.84,7.36,86.76,19.34Z"/><path class="cls-3" d="M59.34,5.2c.12.16.14.34.06.4s-.25,0-.36-.19S58.9,5.08,59,5,59.23,5,59.34,5.2Z"/><path class="cls-3" d="M92.14,50.75c.12.16.14.34.06.4s-.25,0-.36-.19-.14-.33-.06-.39S92,50.59,92.14,50.75Z"/><path class="cls-3" d="M72.81,6.19c0,.16-.07.22-.22.15a.59.59,0,0,1-.29-.4c0-.16.08-.23.22-.15A.59.59,0,0,1,72.81,6.19Z"/><path class="cls-3" d="M78.88,50.23c0,.15-.08.22-.22.15a.59.59,0,0,1-.29-.41c0-.15.07-.22.22-.15A.61.61,0,0,1,78.88,50.23Z"/><path class="cls-3" d="M95.79,38.55a.6.6,0,0,1-.3-.41c0-.15.08-.22.22-.15a.63.63,0,0,1,.29.41C96,38.56,95.93,38.62,95.79,38.55Z"/><path class="cls-3" d="M55.47,18.17a.59.59,0,0,1-.29-.41c0-.15.07-.22.21-.15a.59.59,0,0,1,.3.41C55.71,18.18,55.61,18.24,55.47,18.17Z"/><path class="cls-14" d="M87.91,20c-.09.06-.25,0-.36-.18s-.14-.34-.06-.4.25,0,.36.18S88,20,87.91,20Z"/><path class="cls-15" d="M63.69,36.74c-.09,0-.25,0-.36-.19s-.14-.33-.06-.39.25,0,.37.18S63.77,36.68,63.69,36.74Z"/><path class="cls-16" d="M59.34,5.2c.12.16.14.34.06.4s-.25,0-.36-.19S58.9,5.08,59,5,59.23,5,59.34,5.2Z"/><path class="cls-17" d="M92.14,50.75c.12.16.14.34.06.4s-.25,0-.36-.19-.14-.33-.06-.39S92,50.59,92.14,50.75Z"/><path class="cls-18" d="M72.81,6.19c0,.16-.07.22-.22.15a.59.59,0,0,1-.29-.4c0-.16.08-.23.22-.15A.59.59,0,0,1,72.81,6.19Z"/><path class="cls-19" d="M78.88,50.23c0,.15-.08.22-.22.15a.59.59,0,0,1-.29-.41c0-.15.07-.22.22-.15A.61.61,0,0,1,78.88,50.23Z"/><path class="cls-20" d="M95.79,38.55a.6.6,0,0,1-.3-.41c0-.15.08-.22.22-.15a.63.63,0,0,1,.29.41C96,38.56,95.93,38.62,95.79,38.55Z"/><path class="cls-21" d="M55.47,18.17a.59.59,0,0,1-.29-.41c0-.15.07-.22.21-.15a.59.59,0,0,1,.3.41C55.71,18.18,55.61,18.24,55.47,18.17Z"/><path class="cls-22" d="M93.3,29.65a.52.52,0,0,1-.35-.32c-.07-.17,0-.3.09-.29a.52.52,0,0,1,.35.32C93.47,29.53,93.42,29.66,93.3,29.65Z"/><path class="cls-23" d="M58.14,27.13a.53.53,0,0,1-.35-.33c-.08-.17,0-.3.09-.29a.53.53,0,0,1,.35.33C58.3,27,58.26,27.13,58.14,27.13Z"/><path class="cls-24" d="M65.49,3.87c.08.17,0,.3-.09.29a.52.52,0,0,1-.35-.32c-.07-.17,0-.3.09-.29A.52.52,0,0,1,65.49,3.87Z"/><path class="cls-25" d="M86.13,52.33c.07.17,0,.3-.09.29a.52.52,0,0,1-.35-.32c-.08-.17,0-.3.09-.29S86.06,52.16,86.13,52.33Z"/><path class="cls-26" d="M81,12.07c0,.12-.18.11-.32,0a.48.48,0,0,1-.18-.43c0-.12.17-.11.31,0A.51.51,0,0,1,81,12.07Z"/><path class="cls-27" d="M70.7,44.55c0,.11-.17.1-.31,0a.49.49,0,0,1-.18-.44c0-.11.17-.1.31,0A.47.47,0,0,1,70.7,44.55Z"/><path class="cls-28" d="M95.25,46.32a.5.5,0,0,1-.18-.44c0-.11.17-.1.31,0a.53.53,0,0,1,.19.44C95.53,46.45,95.39,46.44,95.25,46.32Z"/><path class="cls-29" d="M55.8,10.26a.51.51,0,0,1-.19-.43c0-.12.18-.11.32,0a.48.48,0,0,1,.18.43C56.08,10.4,55.94,10.39,55.8,10.26Z"/><path class="cls-30" d="M91,25c-.11,0-.27-.1-.37-.26s-.08-.33,0-.35.27.09.36.26S91.12,24.92,91,25Z"/><path class="cls-31" d="M60.5,31.83c-.1,0-.27-.1-.36-.26s-.08-.33,0-.35.27.09.37.26S60.61,31.8,60.5,31.83Z"/><path class="cls-32" d="M62.26,4c.1.17.09.33,0,.35s-.27-.09-.36-.26-.09-.32,0-.35S62.17,3.85,62.26,4Z"/><path class="cls-33" d="M89.3,52.06c.1.17.09.32,0,.34s-.27-.09-.36-.26-.09-.32,0-.34S89.21,51.89,89.3,52.06Z"/><path class="cls-34" d="M77.08,8.85c0,.14-.13.17-.28.06a.56.56,0,0,1-.24-.43c0-.13.13-.16.27-.06A.56.56,0,0,1,77.08,8.85Z"/><path class="cls-35" d="M74.62,47.68c0,.14-.13.17-.27.06a.58.58,0,0,1-.25-.43c0-.13.13-.16.28-.06A.58.58,0,0,1,74.62,47.68Z"/><path class="cls-36" d="M95.92,42.88a.56.56,0,0,1-.24-.43c0-.14.13-.16.27-.06a.58.58,0,0,1,.25.43C96.19,43,96.06,43,95.92,42.88Z"/><path class="cls-37" d="M55.23,13.78a.59.59,0,0,1-.25-.43c0-.14.14-.17.28-.06a.56.56,0,0,1,.24.43C55.49,13.85,55.37,13.88,55.23,13.78Z"/><path class="cls-38" d="M95,34.66a.55.55,0,0,1-.33-.38c0-.16,0-.26.16-.21a.58.58,0,0,1,.33.37C95.22,34.61,95.15,34.7,95,34.66Z"/><path class="cls-39" d="M56.33,22.1a.58.58,0,0,1-.33-.38c0-.16,0-.26.17-.21a.57.57,0,0,1,.32.37C56.54,22.05,56.46,22.14,56.33,22.1Z"/><path class="cls-40" d="M69.4,4.73c0,.16,0,.26-.16.21a.58.58,0,0,1-.33-.37c0-.17,0-.26.17-.22A.57.57,0,0,1,69.4,4.73Z"/><path class="cls-41" d="M82.27,51.6c0,.16,0,.26-.17.22a.61.61,0,0,1-.32-.38c0-.16,0-.26.16-.22A.6.6,0,0,1,82.27,51.6Z"/><path class="cls-42" d="M85,16.22c-.06.08-.22,0-.35-.11s-.18-.34-.11-.42.22,0,.35.11S85,16.13,85,16.22Z"/><path class="cls-43" d="M66.69,40.48c-.06.09-.22,0-.34-.11s-.18-.34-.12-.42.22,0,.35.11S66.76,40.4,66.69,40.48Z"/><path class="cls-44" d="M93.7,49.25c-.13-.15-.18-.34-.11-.42s.21,0,.34.11.18.34.12.42S93.83,49.4,93.7,49.25Z"/><path class="cls-45" d="M57.25,7.22c-.13-.14-.18-.33-.12-.41s.22,0,.35.11.18.33.11.42S57.38,7.37,57.25,7.22Z"/><path class="cls-46" d="M89.58,22.52c-.09,0-.26-.06-.36-.23s-.11-.33,0-.37.26.06.37.22S89.68,22.48,89.58,22.52Z"/><path class="cls-47" d="M62,34.25c-.1,0-.26-.06-.37-.23s-.11-.33,0-.37.26.06.36.22S62.07,34.21,62,34.25Z"/><path class="cls-48" d="M60.76,4.47c.11.16.12.33,0,.37s-.26-.06-.37-.23-.11-.33,0-.37S60.66,4.3,60.76,4.47Z"/><path class="cls-49" d="M90.77,51.55c.1.17.11.33,0,.37s-.26-.05-.36-.22-.12-.33,0-.37S90.66,51.39,90.77,51.55Z"/><path class="cls-50" d="M75,7.45c0,.14-.1.19-.25.1a.61.61,0,0,1-.27-.42c0-.15.11-.19.25-.1A.59.59,0,0,1,75,7.45Z"/><path class="cls-51" d="M76.7,49c0,.14-.11.19-.25.1a.63.63,0,0,1-.27-.42c0-.15.1-.19.25-.11A.63.63,0,0,1,76.7,49Z"/><path class="cls-52" d="M96,40.85a.63.63,0,0,1-.27-.42c0-.15.1-.2.25-.11a.63.63,0,0,1,.27.42C96.22,40.89,96.11,40.93,96,40.85Z"/><path class="cls-53" d="M55.23,15.85a.59.59,0,0,1-.26-.43c0-.14.1-.19.24-.1a.6.6,0,0,1,.27.42C55.49,15.89,55.38,15.93,55.23,15.85Z"/><path class="cls-54" d="M94.28,32.25a.59.59,0,0,1-.34-.35c0-.17,0-.28.13-.26a.56.56,0,0,1,.34.36C94.47,32.16,94.41,32.28,94.28,32.25Z"/><path class="cls-55" d="M57.11,24.52a.52.52,0,0,1-.34-.35c-.06-.17,0-.28.13-.25a.54.54,0,0,1,.34.35C57.3,24.44,57.24,24.55,57.11,24.52Z"/><path class="cls-56" d="M67.46,4.18c.06.17,0,.28-.13.25A.54.54,0,0,1,67,4.08c-.06-.17,0-.28.13-.25A.54.54,0,0,1,67.46,4.18Z"/><path class="cls-57" d="M84.19,52.09c.06.16,0,.28-.13.25a.59.59,0,0,1-.34-.35c-.06-.17,0-.28.13-.26A.58.58,0,0,1,84.19,52.09Z"/><path class="cls-58" d="M83.06,14.13c0,.1-.2.06-.33-.07a.44.44,0,0,1-.15-.43c0-.1.2-.07.33.07A.45.45,0,0,1,83.06,14.13Z"/><path class="cls-59" d="M68.6,42.54c0,.1-.2.07-.33-.07s-.2-.33-.15-.43.2-.07.33.07A.44.44,0,0,1,68.6,42.54Z"/><path class="cls-60" d="M94.56,47.93c-.13-.14-.2-.33-.15-.43s.2-.07.33.07a.44.44,0,0,1,.15.43C94.84,48.1,94.69,48.07,94.56,47.93Z"/><path class="cls-61" d="M56.44,8.59c-.13-.13-.2-.33-.15-.42s.2-.07.33.06.2.33.15.43S56.57,8.73,56.44,8.59Z"/><path class="cls-62" d="M92.36,27.55c-.11,0-.28-.12-.36-.29s0-.31.06-.32.28.13.36.3S92.48,27.55,92.36,27.55Z"/><path class="cls-63" d="M59.12,29.23a.49.49,0,0,1-.36-.3c-.09-.17-.06-.31.06-.32a.51.51,0,0,1,.36.3C59.26,29.08,59.23,29.22,59.12,29.23Z"/><path class="cls-64" d="M64,3.82c.08.17.06.32-.06.32s-.28-.12-.36-.29-.06-.32.06-.32S63.92,3.65,64,3.82Z"/><path class="cls-65" d="M87.6,52.32c.08.17.06.31-.06.32a.49.49,0,0,1-.36-.3c-.08-.17-.06-.31.06-.32A.49.49,0,0,1,87.6,52.32Z"/><path class="cls-66" d="M79.26,10.56c0,.12-.16.13-.3,0a.52.52,0,0,1-.21-.43c0-.13.15-.13.29,0A.57.57,0,0,1,79.26,10.56Z"/><path class="cls-67" d="M72.43,46c0,.12-.15.13-.29,0a.54.54,0,0,1-.21-.44c0-.12.15-.13.29,0A.51.51,0,0,1,72.43,46Z"/><path class="cls-68" d="M95.64,44.86a.54.54,0,0,1-.21-.43c0-.13.16-.13.3,0a.53.53,0,0,1,.21.44C95.92,45,95.79,45,95.64,44.86Z"/><path class="cls-69" d="M55.45,11.75a.51.51,0,0,1-.21-.43c0-.13.16-.13.3,0a.56.56,0,0,1,.21.44C55.72,11.86,55.59,11.87,55.45,11.75Z"/><path class="cls-70" d="M95.57,37.13a.61.61,0,0,1-.31-.39c0-.16.06-.24.2-.18a.6.6,0,0,1,.31.4C95.8,37.12,95.71,37.2,95.57,37.13Z"/><path class="cls-71" d="M55.72,19.61a.66.66,0,0,1-.31-.4c0-.16.06-.24.2-.18a.6.6,0,0,1,.31.4C56,19.59,55.86,19.67,55.72,19.61Z"/><path class="cls-72" d="M71.53,5.57c0,.16-.06.24-.2.18a.63.63,0,0,1-.31-.4c0-.16.06-.24.2-.18A.6.6,0,0,1,71.53,5.57Z"/><path class="cls-73" d="M80.16,50.82c0,.16-.06.24-.2.17a.61.61,0,0,1-.31-.39c0-.16.06-.24.2-.18A.6.6,0,0,1,80.16,50.82Z"/><path class="cls-74" d="M86.84,18.56c-.07.07-.23,0-.35-.15s-.16-.34-.08-.41.24,0,.36.16S86.92,18.5,86.84,18.56Z"/><path class="cls-75" d="M64.77,38.16c-.08.07-.24,0-.36-.15s-.15-.34-.07-.41.23,0,.35.16S64.85,38.1,64.77,38.16Z"/><path class="cls-76" d="M92.59,50.4c-.12-.15-.16-.33-.08-.4s.24,0,.36.15.15.34.08.41S92.71,50.56,92.59,50.4Z"/><path class="cls-77" d="M58.31,6c-.12-.15-.15-.33-.08-.4s.24,0,.36.15.16.34.08.41S58.43,6.17,58.31,6Z"/><path class="cls-12" d="M88.64,45.07l-1.73,1.15-2.55-3.59a5.42,5.42,0,0,1-4.44-1,20.55,20.55,0,0,1-5.18-5.37L74.55,36l3-2,.19.27a13.68,13.68,0,0,0,2.55,2.87c.69.53,1.24.64,1.67.35h0c.33-.23.42-.63.28-1.22A7,7,0,0,0,81.08,34a7.84,7.84,0,0,0-1.86-2,5.59,5.59,0,0,0-2.1-.85,13.37,13.37,0,0,1-3.87-.9,11.14,11.14,0,0,1-3-1.92,19.85,19.85,0,0,1-2.86-3.29,15.11,15.11,0,0,1-2.69-5.66,4.55,4.55,0,0,1,.61-3.87L62.6,11.67l1.73-1.15,2.81,3.94a5.56,5.56,0,0,1,4.18,1.31,21.48,21.48,0,0,1,4.89,5.16l.19.26-3,2-.19-.27a14.31,14.31,0,0,0-2.49-2.85c-.63-.48-1.09-.63-1.39-.43h0c-.28.19-.33.56-.16,1.14a8.53,8.53,0,0,0,1.25,2.31,7.57,7.57,0,0,0,1.67,1.77,6.41,6.41,0,0,0,2.26.94,15,15,0,0,1,4,1,11.63,11.63,0,0,1,2.9,1.93A19.63,19.63,0,0,1,84,32a15.25,15.25,0,0,1,2.72,5.66,4.47,4.47,0,0,1-.67,3.87Zm-1.82.42L88,44.73l-2.5-3.51.1-.11a4,4,0,0,0,.73-3.68,14.28,14.28,0,0,0-2.55-5.28,18.09,18.09,0,0,0-2.61-3,10.6,10.6,0,0,0-2.69-1.79,14.73,14.73,0,0,0-3.89-1,7,7,0,0,1-2.5-1.05,8.6,8.6,0,0,1-1.92-2,9.26,9.26,0,0,1-1.42-2.64c-.23-.77-.13-1.27.24-1.54s1-.09,1.83.53a13.88,13.88,0,0,1,2.52,2.83l2.42-1.61a20.21,20.21,0,0,0-4.43-4.63,5,5,0,0,0-4-1.17l-.15,0-2.73-3.84L63.27,12,66,15.79l-.1.12a4.1,4.1,0,0,0-.67,3.68,14.18,14.18,0,0,0,2.52,5.27A17.86,17.86,0,0,0,70.39,28a10.54,10.54,0,0,0,2.76,1.78,13,13,0,0,0,3.75.87,6.29,6.29,0,0,1,2.34.94,9.2,9.2,0,0,1,2.12,2.26h0a8,8,0,0,1,1.35,2.63c.18.76.06,1.3-.36,1.59h0c-.54.35-1.25.2-2.12-.46a14.23,14.23,0,0,1-2.59-2.85l-2.42,1.61a18.92,18.92,0,0,0,4.71,4.81,4.92,4.92,0,0,0,4.26.89l.14-.05Z"/><path class="cls-78" d="M88.66,44.57l-1.72,1.14-2.55-3.58a5.42,5.42,0,0,1-4.44-1,20.51,20.51,0,0,1-5.19-5.36l-.19-.27,3-2,.19.26a13.7,13.7,0,0,0,2.55,2.87c.7.53,1.25.65,1.68.36h0c.34-.23.43-.63.29-1.23a7.17,7.17,0,0,0-1.18-2.27,8.2,8.2,0,0,0-1.85-2,5.56,5.56,0,0,0-2.11-.84,13.43,13.43,0,0,1-3.87-.91,11.25,11.25,0,0,1-3-1.92,18.91,18.91,0,0,1-2.86-3.28,15.19,15.19,0,0,1-2.7-5.67A4.5,4.5,0,0,1,65.37,15l-2.74-3.85L64.36,10,67.16,14a5.63,5.63,0,0,1,4.18,1.31,21.47,21.47,0,0,1,4.89,5.16l.19.27-3,2-.19-.26a14.33,14.33,0,0,0-2.48-2.85c-.64-.49-1.09-.63-1.39-.43h0c-.28.2-.34.57-.17,1.14a8.33,8.33,0,0,0,1.26,2.31,7.56,7.56,0,0,0,1.66,1.77,6.57,6.57,0,0,0,2.27.95,14.53,14.53,0,0,1,4,1,11.45,11.45,0,0,1,2.9,1.93,19.71,19.71,0,0,1,2.79,3.21,15.33,15.33,0,0,1,2.72,5.66A4.47,4.47,0,0,1,86.11,41ZM86.85,45,88,44.23l-2.5-3.51.11-.12a4,4,0,0,0,.72-3.68,14.21,14.21,0,0,0-2.54-5.27,18.62,18.62,0,0,0-2.61-3,10.46,10.46,0,0,0-2.69-1.78,14,14,0,0,0-3.9-1,7,7,0,0,1-2.5-1.05,9.09,9.09,0,0,1-1.92-2,9.49,9.49,0,0,1-1.42-2.63c-.22-.77-.12-1.27.25-1.55s1-.08,1.82.54A14.06,14.06,0,0,1,73.34,22l2.41-1.6a19.8,19.8,0,0,0-4.43-4.63,5,5,0,0,0-4-1.17l-.14,0-2.74-3.84-1.15.77L66,15.29l-.11.11a4.1,4.1,0,0,0-.66,3.68,14,14,0,0,0,2.51,5.28,17.78,17.78,0,0,0,2.69,3.08,10.25,10.25,0,0,0,2.75,1.78,12.79,12.79,0,0,0,3.76.87,6.18,6.18,0,0,1,2.33.95,9,9,0,0,1,2.13,2.25h0a8.24,8.24,0,0,1,1.35,2.64c.18.76.06,1.29-.36,1.58h0c-.54.36-1.24.21-2.11-.45a13.92,13.92,0,0,1-2.59-2.85l-2.42,1.6a18.73,18.73,0,0,0,4.7,4.81,4.91,4.91,0,0,0,4.26.9l.15-.05Z"/><path class="cls-79" d="M81.24,33.39a8.6,8.6,0,0,0-2-2.12A5.89,5.89,0,0,0,77,30.38a13.19,13.19,0,0,1-3.82-.89,11,11,0,0,1-2.86-1.85,19.35,19.35,0,0,1-2.77-3.18A14.71,14.71,0,0,1,65,19a4.22,4.22,0,0,1,.7-3.83L63,11.34l1.45-1,2.76,3.88q1.8-.43,4.16,1.23a21,21,0,0,1,4.76,5l-2.71,1.79a14.6,14.6,0,0,0-2.6-3c-.72-.55-1.25-.71-1.6-.48s-.41.67-.21,1.35a8.91,8.91,0,0,0,1.34,2.47,7.88,7.88,0,0,0,1.79,1.9,6.77,6.77,0,0,0,2.37,1,14.53,14.53,0,0,1,4,1,11.37,11.37,0,0,1,2.8,1.86,18.58,18.58,0,0,1,2.69,3.12A14.72,14.72,0,0,1,86.56,37a4.21,4.21,0,0,1-.76,3.83l2.53,3.55-1.44,1-2.52-3.54a5.13,5.13,0,0,1-4.43-.94,19.73,19.73,0,0,1-5-5.22l2.71-1.79a14.06,14.06,0,0,0,2.67,3c.77.59,1.41.73,1.89.41s.5-.73.34-1.42A7.56,7.56,0,0,0,81.24,33.39Z"/><g class="cls-80"><path class="cls-3" d="M67,.59a13.18,13.18,0,0,0-8.82.35L52.56,16.83a44,44,0,0,0,4.22,12.58Z"/></g><g class="cls-81"><path class="cls-3" d="M69.69,46.59l13-36.38C81.45,9.05,80.22,8,79,7l-12.83,36Q67.89,45,69.69,46.59Z"/></g><g class="cls-81"><path class="cls-3" d="M64.4,41.05,77,5.56c-.49-.35-1-.7-1.47-1L63.14,39.45C63.56,40,64,40.53,64.4,41.05Z"/></g><g class="cls-82"><path class="cls-3" d="M85.48,13.16c-.45-.5-.91-1-1.37-1.47L71.2,47.94c.49.42,1,.81,1.47,1.19Z"/></g><g class="cls-83"><path class="cls-3" d="M73.78,50c8.08,6,16.29,7.83,21.25,4,7.39-5.76,4.73-22-5.94-36.39q-1.28-1.69-2.61-3.24Z"/></g></g></g></svg>