<svg xmlns="http://www.w3.org/2000/svg" viewBox="0 0 258.04 196.96" width="100%" height="100%" preserveAspectRatio="none"><defs><style>.cls-1{isolation:isolate;}.cls-2{opacity:0.35;}.cls-2,.cls-4{mix-blend-mode:screen;}.cls-3,.cls-4{fill:#e83538;}.cls-4{opacity:0.5;}.cls-5{fill:#e85c4b;}.cls-6{fill:none;stroke:#fff;stroke-linecap:round;stroke-linejoin:round;stroke-width:0.25px;opacity:0.26;}</style></defs><g class="cls-1"><g id="Layer_1"><g class="cls-2"><rect class="cls-3" x="0.13" width="257.79" height="196.96" rx="98.48"/></g><path class="cls-4" d="M20.07,197H238A19.94,19.94,0,0,0,257.91,177v-75.7a2.17,2.17,0,0,0-4.28-.53l-13.34,52.92a2.18,2.18,0,0,1-4.26-.2l-3-18.93a2.18,2.18,0,0,0-4.3,0L227,146.14a2.18,2.18,0,0,1-4.31-.06l-7.25-59a2.18,2.18,0,0,0-4.32,0l-5.51,47.07a2.18,2.18,0,0,1-4.29.22l-6.39-28.61a2.17,2.17,0,0,0-4.17-.25L174,152.27a2.17,2.17,0,0,1-4.2-.43L157.55,64a2.17,2.17,0,0,0-4.29-.1l-16.74,90.73a2.17,2.17,0,0,1-4.29-.1l-5.44-40.09a2.18,2.18,0,0,0-4.3-.1l-7.44,41.12a2.18,2.18,0,0,1-4.28,0h0a2.17,2.17,0,0,0-4.23-.16L103.88,165a2.18,2.18,0,0,1-4.26-.29L89.29,86.13A2.18,2.18,0,0,0,85,85.81L72.83,128.35a2.18,2.18,0,0,1-4.23-.21l-1.26-6.85a2.17,2.17,0,0,0-4.28,0L59,144.59a2.18,2.18,0,0,1-4.26.13L44.21,101a2.18,2.18,0,0,0-4.19-.14L22,158.08a2.18,2.18,0,0,1-4.2-.17L4.42,99.34a2.17,2.17,0,0,0-4.29.48V177A19.94,19.94,0,0,0,20.07,197Z"/><path class="cls-5" d="M29.61,71.06H27.68V65.2a.09.09,0,0,0-.08-.09.09.09,0,0,0-.09.09v5.86H25.58V87.78h1.93v5.86a.09.09,0,0,0,.09.09.09.09,0,0,0,.08-.09V87.78h1.93Z"/><path class="cls-5" d="M47.39,128.29H45.47v-5.86a.09.09,0,0,0-.09-.09.09.09,0,0,0-.08.09v5.86H43.37V145H45.3v5.86a.09.09,0,0,0,.08.09.09.09,0,0,0,.09-.09V145h1.92Z"/><path class="cls-5" d="M68.57,46.29H66.64V40.43a.09.09,0,0,0-.08-.09.09.09,0,0,0-.09.09v5.86H64.55V63h1.92v5.86a.09.09,0,0,0,.09.09.09.09,0,0,0,.08-.09V63h1.93Z"/><path class="cls-5" d="M85.83,121.19H83.9v-5.87a.08.08,0,1,0-.16,0v5.87H81.81V137.9h1.93v5.86a.08.08,0,1,0,.16,0V137.9h1.93Z"/><path class="cls-5" d="M98.46,80.19H96.54V74.32a.08.08,0,0,0-.09-.08.08.08,0,0,0-.08.08v5.87H94.44V96.9h1.93v5.87a.09.09,0,0,0,.08.08.09.09,0,0,0,.09-.08V96.9h1.92Z"/><path class="cls-5" d="M111.28,128.29h-1.93v-5.86a.09.09,0,0,0-.09-.09.09.09,0,0,0-.08.09v5.86h-1.93V145h1.93v5.86a.09.09,0,0,0,.08.09.09.09,0,0,0,.09-.09V145h1.93Z"/><path class="cls-5" d="M120.35,56.76h-1.92V50.89a.08.08,0,0,0-.09-.08.08.08,0,0,0-.08.08v5.87h-1.93V73.47h1.93v5.87a.09.09,0,0,0,.08.08.09.09,0,0,0,.09-.08V73.47h1.92Z"/><path class="cls-5" d="M136.05,94.49h-1.93V88.63a.09.09,0,0,0-.09-.09.09.09,0,0,0-.08.09v5.86H132v16.72H134v5.86a.09.09,0,0,0,.08.09.09.09,0,0,0,.09-.09v-5.86h1.93Z"/><path class="cls-5" d="M163.13,53.77H161.2V47.9a.08.08,0,1,0-.16,0v5.87h-1.93V70.48H161v5.87a.08.08,0,0,0,.16,0V70.48h1.93Z"/><path class="cls-5" d="M165.14,146h-1.92v-5.86a.09.09,0,0,0-.09-.09.09.09,0,0,0-.08.09V146h-1.93v16.72h1.93v5.86a.09.09,0,0,0,.08.09.09.09,0,0,0,.09-.09v-5.86h1.92Z"/><path class="cls-5" d="M176.62,87.93h-1.93V82.06a.09.09,0,0,0-.08-.08.09.09,0,0,0-.09.08v5.87H172.6v16.71h1.92v5.87a.09.09,0,0,0,.09.09.09.09,0,0,0,.08-.09v-5.87h1.93Z"/><path class="cls-5" d="M192,68.07h-1.92V62.21a.09.09,0,0,0-.09-.09.09.09,0,0,0-.08.09v5.86H188V84.79h1.93v5.86a.09.09,0,0,0,.08.09.09.09,0,0,0,.09-.09V84.79H192Z"/><path class="cls-5" d="M204,121.19H202v-5.87a.08.08,0,1,0-.16,0v5.87h-1.93V137.9h1.93v5.86a.08.08,0,1,0,.16,0V137.9H204Z"/><path class="cls-5" d="M219.33,53.77H217.4V47.9a.09.09,0,0,0-.09-.09.09.09,0,0,0-.08.09v5.87H215.3V70.48h1.93v5.87a.09.09,0,0,0,.08.08.09.09,0,0,0,.09-.08V70.48h1.93Z"/><path class="cls-5" d="M235.13,126.37H233.2V120.5a.09.09,0,0,0-.08-.08.09.09,0,0,0-.09.08v5.87H231.1v16.71H233V149a.09.09,0,0,0,.09.08.09.09,0,0,0,.08-.08v-5.87h1.93Z"/><path class="cls-5" d="M246.61,53.77h-1.93V47.9a.09.09,0,0,0-.08-.09.09.09,0,0,0-.09.09v5.87h-1.92V70.48h1.92v5.87a.09.09,0,0,0,.09.08.09.09,0,0,0,.08-.08V70.48h1.93Z"/><polyline class="cls-6" points="0.13 73.34 10.3 99.6 29.26 51.13 37.83 79.74 46.55 43.66 51.82 99.6 64.3 77.55 74.51 122.02 87.97 48.57 97.34 104.24 109.25 62.47 120.54 89.99 131.97 66.79 149.17 116.55 163.08 54.12 175.82 104.24 185.51 65.43 198.26 150.64 209.5 87.48 212.5 123.73 229.34 36.82 241.58 106.16 245.87 77.55 249.47 104.24 257.91 54.12"/></g></g></svg>