<svg xmlns="http://www.w3.org/2000/svg" xmlns:xlink="http://www.w3.org/1999/xlink" viewBox="0 0 62.38 62.36" width="100%" height="100%" preserveAspectRatio="none"><defs><style>.cls-1{isolation:isolate;}.cls-2{fill:url(#linear-gradient);}.cls-3{fill:url(#linear-gradient-2);}.cls-4{fill:#ce3f00;}.cls-5{fill:#fca611;}.cls-6{fill:#ffc325;}.cls-7{fill:#ffe554;}.cls-8{fill:url(#linear-gradient-3);}.cls-9{fill:url(#linear-gradient-4);}.cls-10{fill:url(#linear-gradient-5);}.cls-11{fill:url(#linear-gradient-6);}.cls-12{fill:url(#linear-gradient-7);}.cls-13{fill:url(#linear-gradient-8);}.cls-14{fill:url(#linear-gradient-9);}.cls-15{fill:url(#linear-gradient-10);}.cls-16{fill:url(#linear-gradient-11);}.cls-17{fill:url(#linear-gradient-12);}.cls-18{fill:url(#linear-gradient-13);}.cls-19{fill:url(#linear-gradient-14);}.cls-20{fill:url(#linear-gradient-15);}.cls-21{fill:url(#linear-gradient-16);}.cls-22{fill:url(#linear-gradient-17);}.cls-23{fill:url(#linear-gradient-18);}.cls-24{fill:url(#linear-gradient-19);}.cls-25{fill:url(#linear-gradient-20);}.cls-26{fill:url(#linear-gradient-21);}.cls-27{fill:url(#linear-gradient-22);}.cls-28{fill:url(#linear-gradient-23);}.cls-29{fill:url(#linear-gradient-24);}.cls-30{fill:url(#linear-gradient-25);}.cls-31{fill:url(#linear-gradient-26);}.cls-32{fill:url(#linear-gradient-27);}.cls-33{fill:url(#linear-gradient-28);}.cls-34{fill:url(#linear-gradient-29);}.cls-35{fill:url(#linear-gradient-30);}.cls-36{fill:url(#linear-gradient-31);}.cls-37{fill:url(#linear-gradient-32);}.cls-38{fill:url(#linear-gradient-33);}.cls-39{fill:url(#linear-gradient-34);}.cls-40{fill:url(#linear-gradient-35);}.cls-41{fill:url(#linear-gradient-36);}.cls-42{fill:url(#linear-gradient-37);}.cls-43{fill:url(#linear-gradient-38);}.cls-44{fill:url(#linear-gradient-39);}.cls-45{fill:url(#linear-gradient-40);}.cls-46{fill:url(#linear-gradient-41);}.cls-47{fill:url(#linear-gradient-42);}.cls-48{fill:url(#linear-gradient-43);}.cls-49{fill:url(#linear-gradient-44);}.cls-50{fill:url(#linear-gradient-45);}.cls-51{fill:url(#linear-gradient-46);}.cls-52{fill:url(#linear-gradient-47);}.cls-53{fill:url(#linear-gradient-48);}.cls-54{fill:url(#linear-gradient-49);}.cls-55{fill:url(#linear-gradient-50);}.cls-56{fill:url(#linear-gradient-51);}.cls-57{fill:url(#linear-gradient-52);}.cls-58{fill:url(#linear-gradient-53);}.cls-59{fill:url(#linear-gradient-54);}.cls-60{fill:url(#linear-gradient-55);}.cls-61{fill:url(#linear-gradient-56);}.cls-62{fill:url(#linear-gradient-57);}.cls-63{fill:url(#linear-gradient-58);}.cls-64{fill:url(#linear-gradient-59);}.cls-65{fill:url(#linear-gradient-60);}.cls-66{fill:url(#linear-gradient-61);}.cls-67{fill:url(#linear-gradient-62);}.cls-68{fill:url(#linear-gradient-63);}.cls-69{fill:url(#linear-gradient-64);}.cls-70{fill:url(#linear-gradient-65);}.cls-71{fill:url(#linear-gradient-66);}.cls-72{fill:url(#linear-gradient-67);}.cls-73{fill:url(#linear-gradient-68);}.cls-74,.cls-76{mix-blend-mode:soft-light;}.cls-75{opacity:0.4;}.cls-75,.cls-77{mix-blend-mode:multiply;}.cls-76{opacity:0.5;}.cls-77{opacity:0.7;}</style><linearGradient id="linear-gradient" x1="-37.88" y1="-31.66" x2="96.29" y2="90.42" gradientTransform="translate(31.18 -12.92) rotate(45)" gradientUnits="userSpaceOnUse"><stop offset="0" stop-color="#ffed94"/><stop offset="0.41" stop-color="#fca611"/><stop offset="0.46" stop-color="#ffed94"/><stop offset="0.99" stop-color="#e85c4b"/></linearGradient><linearGradient id="linear-gradient-2" x1="1.19" y1="31.18" x2="60.65" y2="31.18" gradientUnits="userSpaceOnUse"><stop offset="0" stop-color="#ffed94"/><stop offset="0.3" stop-color="#ffed94"/><stop offset="0.41" stop-color="#fca611"/><stop offset="0.46" stop-color="#ffed94"/><stop offset="0.99" stop-color="#e85c4b"/></linearGradient><linearGradient id="linear-gradient-3" x1="77.01" y1="11.42" x2="30.83" y2="59.38" xlink:href="#linear-gradient-2"/><linearGradient id="linear-gradient-4" x1="48.94" y1="-15.6" x2="2.76" y2="32.36" xlink:href="#linear-gradient-2"/><linearGradient id="linear-gradient-5" x1="49.46" y1="-15.1" x2="3.28" y2="32.86" xlink:href="#linear-gradient-2"/><linearGradient id="linear-gradient-6" x1="76.48" y1="10.92" x2="30.31" y2="58.88" xlink:href="#linear-gradient-2"/><linearGradient id="linear-gradient-7" x1="63.34" y1="-1.73" x2="17.17" y2="46.23" xlink:href="#linear-gradient-2"/><linearGradient id="linear-gradient-8" x1="62.6" y1="-2.45" x2="16.43" y2="45.51" xlink:href="#linear-gradient-2"/><linearGradient id="linear-gradient-9" x1="82.45" y1="16.66" x2="36.27" y2="64.62" xlink:href="#linear-gradient-2"/><linearGradient id="linear-gradient-10" x1="43.5" y1="-20.84" x2="-2.68" y2="27.12" xlink:href="#linear-gradient-2"/><linearGradient id="linear-gradient-11" x1="81.19" y1="15.45" x2="35.01" y2="63.41" xlink:href="#linear-gradient-2"/><linearGradient id="linear-gradient-12" x1="44.76" y1="-19.63" x2="-1.42" y2="28.33" xlink:href="#linear-gradient-2"/><linearGradient id="linear-gradient-13" x1="56.07" y1="-8.74" x2="9.89" y2="39.22" xlink:href="#linear-gradient-2"/><linearGradient id="linear-gradient-14" x1="69.88" y1="4.56" x2="23.7" y2="52.52" xlink:href="#linear-gradient-2"/><linearGradient id="linear-gradient-15" x1="70.97" y1="5.61" x2="24.79" y2="53.57" xlink:href="#linear-gradient-2"/><linearGradient id="linear-gradient-16" x1="54.98" y1="-9.79" x2="8.8" y2="38.17" xlink:href="#linear-gradient-2"/><linearGradient id="linear-gradient-17" x1="80.74" y1="15.01" x2="34.56" y2="62.97" xlink:href="#linear-gradient-2"/><linearGradient id="linear-gradient-18" x1="45.21" y1="-19.19" x2="-0.97" y2="28.77" xlink:href="#linear-gradient-2"/><linearGradient id="linear-gradient-19" x1="79.51" y1="13.83" x2="33.33" y2="61.79" xlink:href="#linear-gradient-2"/><linearGradient id="linear-gradient-20" x1="46.43" y1="-18.01" x2="0.26" y2="29.95" xlink:href="#linear-gradient-2"/><linearGradient id="linear-gradient-21" x1="52.68" y1="-12" x2="6.5" y2="35.96" xlink:href="#linear-gradient-2"/><linearGradient id="linear-gradient-22" x1="73.27" y1="7.82" x2="27.09" y2="55.78" xlink:href="#linear-gradient-2"/><linearGradient id="linear-gradient-23" x1="67.39" y1="2.16" x2="21.21" y2="50.12" xlink:href="#linear-gradient-2"/><linearGradient id="linear-gradient-24" x1="58.56" y1="-6.34" x2="12.38" y2="41.62" xlink:href="#linear-gradient-2"/><linearGradient id="linear-gradient-25" x1="81.95" y1="16.18" x2="35.77" y2="64.14" xlink:href="#linear-gradient-2"/><linearGradient id="linear-gradient-26" x1="44" y1="-20.36" x2="-2.18" y2="27.6" xlink:href="#linear-gradient-2"/><linearGradient id="linear-gradient-27" x1="82.23" y1="16.45" x2="36.05" y2="64.41" xlink:href="#linear-gradient-2"/><linearGradient id="linear-gradient-28" x1="43.72" y1="-20.63" x2="-2.46" y2="27.33" xlink:href="#linear-gradient-2"/><linearGradient id="linear-gradient-29" x1="60.01" y1="-4.94" x2="13.83" y2="43.02" xlink:href="#linear-gradient-2"/><linearGradient id="linear-gradient-30" x1="65.94" y1="0.76" x2="19.76" y2="48.72" xlink:href="#linear-gradient-2"/><linearGradient id="linear-gradient-31" x1="74.49" y1="9" x2="28.32" y2="56.96" xlink:href="#linear-gradient-2"/><linearGradient id="linear-gradient-32" x1="51.45" y1="-13.18" x2="5.28" y2="34.78" xlink:href="#linear-gradient-2"/><linearGradient id="linear-gradient-33" x1="78.68" y1="13.04" x2="32.51" y2="61" xlink:href="#linear-gradient-2"/><linearGradient id="linear-gradient-34" x1="47.26" y1="-17.22" x2="1.09" y2="30.74" xlink:href="#linear-gradient-2"/><linearGradient id="linear-gradient-35" x1="78.38" y1="12.74" x2="32.2" y2="60.7" xlink:href="#linear-gradient-2"/><linearGradient id="linear-gradient-36" x1="47.57" y1="-16.92" x2="1.39" y2="31.04" xlink:href="#linear-gradient-2"/><linearGradient id="linear-gradient-37" x1="51.05" y1="-13.57" x2="4.87" y2="34.39" xlink:href="#linear-gradient-2"/><linearGradient id="linear-gradient-38" x1="74.9" y1="9.39" x2="28.72" y2="57.35" xlink:href="#linear-gradient-2"/><linearGradient id="linear-gradient-39" x1="65.43" y1="0.28" x2="19.26" y2="48.24" xlink:href="#linear-gradient-2"/><linearGradient id="linear-gradient-40" x1="60.51" y1="-4.46" x2="14.33" y2="43.5" xlink:href="#linear-gradient-2"/><linearGradient id="linear-gradient-41" x1="82.3" y1="16.52" x2="36.12" y2="64.48" xlink:href="#linear-gradient-2"/><linearGradient id="linear-gradient-42" x1="43.65" y1="-20.7" x2="-2.53" y2="27.26" xlink:href="#linear-gradient-2"/><linearGradient id="linear-gradient-43" x1="81.82" y1="16.06" x2="35.65" y2="64.02" xlink:href="#linear-gradient-2"/><linearGradient id="linear-gradient-44" x1="44.12" y1="-20.24" x2="-2.06" y2="27.72" xlink:href="#linear-gradient-2"/><linearGradient id="linear-gradient-45" x1="58.07" y1="-6.81" x2="11.89" y2="41.15" xlink:href="#linear-gradient-2"/><linearGradient id="linear-gradient-46" x1="67.88" y1="2.63" x2="21.7" y2="50.59" xlink:href="#linear-gradient-2"/><linearGradient id="linear-gradient-47" x1="72.83" y1="7.4" x2="26.66" y2="55.36" xlink:href="#linear-gradient-2"/><linearGradient id="linear-gradient-48" x1="53.11" y1="-11.58" x2="6.93" y2="36.38" xlink:href="#linear-gradient-2"/><linearGradient id="linear-gradient-49" x1="79.77" y1="14.09" x2="33.6" y2="62.05" xlink:href="#linear-gradient-2"/><linearGradient id="linear-gradient-50" x1="46.17" y1="-18.27" x2="0" y2="29.69" xlink:href="#linear-gradient-2"/><linearGradient id="linear-gradient-51" x1="80.52" y1="14.81" x2="34.35" y2="62.77" xlink:href="#linear-gradient-2"/><linearGradient id="linear-gradient-52" x1="45.42" y1="-18.99" x2="-0.75" y2="28.97" xlink:href="#linear-gradient-2"/><linearGradient id="linear-gradient-53" x1="54.52" y1="-10.23" x2="8.34" y2="37.73" xlink:href="#linear-gradient-2"/><linearGradient id="linear-gradient-54" x1="71.43" y1="6.05" x2="25.25" y2="54.01" xlink:href="#linear-gradient-2"/><linearGradient id="linear-gradient-55" x1="69.4" y1="4.1" x2="23.23" y2="52.06" xlink:href="#linear-gradient-2"/><linearGradient id="linear-gradient-56" x1="56.54" y1="-8.28" x2="10.37" y2="39.68" xlink:href="#linear-gradient-2"/><linearGradient id="linear-gradient-57" x1="81.36" y1="15.61" x2="35.18" y2="63.57" xlink:href="#linear-gradient-2"/><linearGradient id="linear-gradient-58" x1="44.58" y1="-19.79" x2="-1.59" y2="28.17" xlink:href="#linear-gradient-2"/><linearGradient id="linear-gradient-59" x1="82.43" y1="16.65" x2="36.26" y2="64.61" xlink:href="#linear-gradient-2"/><linearGradient id="linear-gradient-60" x1="43.51" y1="-20.83" x2="-2.66" y2="27.13" xlink:href="#linear-gradient-2"/><linearGradient id="linear-gradient-61" x1="62.1" y1="-2.93" x2="15.92" y2="45.03" xlink:href="#linear-gradient-2"/><linearGradient id="linear-gradient-62" x1="63.85" y1="-1.25" x2="17.67" y2="46.71" xlink:href="#linear-gradient-2"/><linearGradient id="linear-gradient-63" x1="76.11" y1="10.56" x2="29.94" y2="58.52" xlink:href="#linear-gradient-2"/><linearGradient id="linear-gradient-64" x1="49.83" y1="-14.74" x2="3.65" y2="33.22" xlink:href="#linear-gradient-2"/><linearGradient id="linear-gradient-65" x1="77.35" y1="11.75" x2="31.18" y2="59.71" xlink:href="#linear-gradient-2"/><linearGradient id="linear-gradient-66" x1="48.59" y1="-15.93" x2="2.42" y2="32.03" xlink:href="#linear-gradient-2"/><linearGradient id="linear-gradient-67" x1="23.78" y1="13.13" x2="33.29" y2="37.66" gradientUnits="userSpaceOnUse"><stop offset="0" stop-color="#ffed94"/><stop offset="0.41" stop-color="#fca611"/><stop offset="0.46" stop-color="#ffed94"/><stop offset="0.99" stop-color="#e78900"/></linearGradient><linearGradient id="linear-gradient-68" x1="23.96" y1="4.34" x2="41.89" y2="74.95" xlink:href="#linear-gradient-2"/></defs><g class="cls-1"><g id="Layer_1"><circle class="cls-2" cx="31.18" cy="31.18" r="31.18" transform="translate(-12.92 31.18) rotate(-45)"/><path class="cls-3" d="M30.91,60.91A29.73,29.73,0,0,1,30,1.47l.92,0A29.73,29.73,0,0,1,60.63,30.28h0A29.72,29.72,0,0,1,31.82,60.9Zm0-59.27-.92,0a29.54,29.54,0,0,0,.89,59.06h.9a29.54,29.54,0,0,0,19.35-51A29.31,29.31,0,0,0,30.94,1.64Z"/><path class="cls-4" d="M30.91,59.6a28.64,28.64,0,1,1,.87,0Zm0-56.36h-.87a28.18,28.18,0,1,0,.87,0Z"/><circle class="cls-5" cx="30.92" cy="31.18" r="28.09" transform="translate(-12.9 34.02) rotate(-48.94)"/><circle class="cls-6" cx="30.92" cy="31.18" r="26.06" transform="translate(-12.94 33.27) rotate(-47.97)"/><circle class="cls-7" cx="30.92" cy="4.16" r="0.34"/><path class="cls-7" d="M31.26,58.25a.34.34,0,1,1-.34-.35A.34.34,0,0,1,31.26,58.25Z"/><circle class="cls-7" cx="50.04" cy="12.08" r="0.34"/><path class="cls-7" d="M12,50.57a.35.35,0,1,1,0-.49A.36.36,0,0,1,12,50.57Z"/><path class="cls-7" d="M49.8,50.57a.34.34,0,0,1,0-.49.34.34,0,0,1,.48,0,.34.34,0,0,1,0,.49A.34.34,0,0,1,49.8,50.57Z"/><path class="cls-7" d="M11.55,12.32a.34.34,0,0,1,0-.48.36.36,0,0,1,.49,0,.34.34,0,0,1,0,.48A.34.34,0,0,1,11.55,12.32Z"/><path class="cls-8" d="M58,31.55a.35.35,0,0,1-.34-.35.34.34,0,0,1,.68,0A.35.35,0,0,1,58,31.55Z"/><path class="cls-9" d="M3.88,31.55a.35.35,0,0,1-.35-.35.35.35,0,0,1,.69,0A.35.35,0,0,1,3.88,31.55Z"/><circle class="cls-10" cx="30.92" cy="4.16" r="0.34"/><path class="cls-11" d="M31.26,58.25a.34.34,0,1,1-.34-.35A.34.34,0,0,1,31.26,58.25Z"/><circle class="cls-12" cx="50.04" cy="12.08" r="0.34"/><path class="cls-13" d="M12,50.57a.35.35,0,1,1,0-.49A.36.36,0,0,1,12,50.57Z"/><path class="cls-14" d="M49.8,50.57a.34.34,0,0,1,0-.49.34.34,0,0,1,.48,0,.34.34,0,0,1,0,.49A.34.34,0,0,1,49.8,50.57Z"/><path class="cls-15" d="M11.55,12.32a.34.34,0,0,1,0-.48.36.36,0,0,1,.49,0,.34.34,0,0,1,0,.48A.34.34,0,0,1,11.55,12.32Z"/><path class="cls-16" d="M55.65,42.15a.33.33,0,0,1-.18-.45.35.35,0,0,1,.45-.18.35.35,0,0,1,.18.45A.35.35,0,0,1,55.65,42.15Z"/><path class="cls-17" d="M5.92,20.89a.34.34,0,0,1-.18-.45.33.33,0,0,1,.45-.18.35.35,0,0,1,.18.45A.35.35,0,0,1,5.92,20.89Z"/><path class="cls-18" d="M41.86,6.47a.33.33,0,0,1-.45.18.35.35,0,0,1-.18-.45A.35.35,0,0,1,41.68,6,.34.34,0,0,1,41.86,6.47Z"/><path class="cls-19" d="M20.6,56.2a.33.33,0,0,1-.45.18.35.35,0,0,1-.18-.45.35.35,0,0,1,.45-.18A.34.34,0,0,1,20.6,56.2Z"/><path class="cls-20" d="M56.14,21.46a.34.34,0,0,1-.25-.64.35.35,0,0,1,.45.19A.35.35,0,0,1,56.14,21.46Z"/><circle class="cls-21" cx="5.82" cy="41.27" r="0.34"/><path class="cls-22" d="M40.66,56.43a.35.35,0,0,1,.19-.45.35.35,0,0,1,.45.2.33.33,0,0,1-.19.44A.34.34,0,0,1,40.66,56.43Z"/><path class="cls-23" d="M20.54,6.23a.34.34,0,1,1,.44.19A.33.33,0,0,1,20.54,6.23Z"/><path class="cls-24" d="M57.3,37.17a.34.34,0,1,1,.14-.67.34.34,0,0,1-.14.67Z"/><path class="cls-25" d="M4.4,25.91a.34.34,0,1,1,.4-.26A.34.34,0,0,1,4.4,25.91Z"/><path class="cls-26" d="M36.88,4.82a.34.34,0,0,1-.4.27.34.34,0,1,1,.14-.67A.34.34,0,0,1,36.88,4.82Z"/><path class="cls-27" d="M25.62,57.72a.34.34,0,0,1-.4.27.34.34,0,0,1-.27-.41.35.35,0,0,1,.41-.26A.33.33,0,0,1,25.62,57.72Z"/><path class="cls-28" d="M53.79,16.77a.35.35,0,0,1-.48-.1.35.35,0,0,1,.58-.38A.35.35,0,0,1,53.79,16.77Z"/><path class="cls-29" d="M8.42,46.21a.34.34,0,1,1-.37-.57.34.34,0,1,1,.37.57Z"/><path class="cls-30" d="M45.35,54.07a.35.35,0,0,1,.1-.47.35.35,0,0,1,.48.1.34.34,0,0,1-.1.47A.34.34,0,0,1,45.35,54.07Z"/><path class="cls-31" d="M15.91,8.71a.34.34,0,0,1,.1-.48.34.34,0,0,1,.47.1.34.34,0,0,1-.1.48A.35.35,0,0,1,15.91,8.71Z"/><path class="cls-32" d="M52.83,47.06a.34.34,0,1,1,.39-.56.34.34,0,0,1-.39.56Z"/><path class="cls-33" d="M8.61,15.91a.34.34,0,1,1,.48-.08A.35.35,0,0,1,8.61,15.91Z"/><path class="cls-34" d="M46.77,9.29a.34.34,0,1,1-.56-.39.34.34,0,0,1,.56.39Z"/><path class="cls-35" d="M15.62,53.51a.34.34,0,0,1-.47.08.34.34,0,0,1-.09-.48.35.35,0,0,1,.48-.08A.34.34,0,0,1,15.62,53.51Z"/><path class="cls-36" d="M57.62,26.92a.34.34,0,1,1,.28-.39A.34.34,0,0,1,57.62,26.92Z"/><circle class="cls-37" cx="4.27" cy="35.82" r="0.34"/><path class="cls-38" d="M35.2,57.91a.34.34,0,0,1,.28-.4.35.35,0,0,1,.12.68A.35.35,0,0,1,35.2,57.91Z"/><path class="cls-39" d="M26,4.62a.34.34,0,0,1,.28-.4.35.35,0,0,1,.4.28.36.36,0,0,1-.28.4A.35.35,0,0,1,26,4.62Z"/><path class="cls-40" d="M57.77,34.45a.34.34,0,0,1-.31-.37.35.35,0,0,1,.38-.31.34.34,0,0,1,.3.38A.34.34,0,0,1,57.77,34.45Z"/><path class="cls-41" d="M4,28.63a.34.34,0,0,1-.31-.37A.35.35,0,0,1,4.07,28a.34.34,0,0,1,.3.38A.34.34,0,0,1,4,28.63Z"/><path class="cls-42" d="M34.17,4.35a.35.35,0,0,1-.38.31.34.34,0,0,1-.3-.38.34.34,0,0,1,.37-.3A.34.34,0,0,1,34.17,4.35Z"/><path class="cls-43" d="M28.35,58.13a.35.35,0,0,1-.38.3.34.34,0,1,1,.08-.68A.35.35,0,0,1,28.35,58.13Z"/><path class="cls-44" d="M52.2,14.52a.35.35,0,0,1-.48-.06.34.34,0,0,1,.05-.48.35.35,0,0,1,.43.54Z"/><path class="cls-45" d="M10.06,48.42a.34.34,0,1,1,.06-.48A.34.34,0,0,1,10.06,48.42Z"/><path class="cls-46" d="M47.6,52.49a.36.36,0,0,1,.06-.49.35.35,0,0,1,.43.54A.36.36,0,0,1,47.6,52.49Z"/><path class="cls-47" d="M13.7,10.35a.34.34,0,1,1,.48.05A.34.34,0,0,1,13.7,10.35Z"/><path class="cls-48" d="M54.33,44.75a.34.34,0,0,1,.33-.6.33.33,0,0,1,.13.47A.34.34,0,0,1,54.33,44.75Z"/><path class="cls-49" d="M7.17,18.26a.34.34,0,1,1,.47-.13A.35.35,0,0,1,7.17,18.26Z"/><path class="cls-50" d="M44.46,7.79a.33.33,0,0,1-.47.13.34.34,0,0,1-.13-.46.35.35,0,0,1,.47-.13A.33.33,0,0,1,44.46,7.79Z"/><path class="cls-51" d="M18,55a.34.34,0,0,1-.46.13.35.35,0,0,1-.14-.47.36.36,0,0,1,.47-.13A.34.34,0,0,1,18,55Z"/><path class="cls-52" d="M57.05,24.23a.36.36,0,0,1-.43-.24.34.34,0,0,1,.24-.42.34.34,0,0,1,.19.66Z"/><path class="cls-53" d="M5,38.84a.34.34,0,1,1-.18-.66.34.34,0,0,1,.18.66Z"/><path class="cls-54" d="M37.89,57.33a.34.34,0,0,1,.66-.18.34.34,0,0,1-.23.42A.35.35,0,0,1,37.89,57.33Z"/><path class="cls-55" d="M23.28,5.26a.34.34,0,0,1,.24-.42.34.34,0,0,1,.42.23.34.34,0,1,1-.66.19Z"/><path class="cls-56" d="M56.5,40a.34.34,0,0,1-.22-.43.35.35,0,0,1,.44-.22.33.33,0,0,1,.21.43A.34.34,0,0,1,56.5,40Z"/><path class="cls-57" d="M5.12,23.09a.35.35,0,0,1-.22-.44.33.33,0,0,1,.43-.21.34.34,0,0,1-.21.65Z"/><path class="cls-58" d="M39.68,5.62a.34.34,0,0,1-.43.22A.34.34,0,0,1,39,5.41a.35.35,0,0,1,.44-.22A.33.33,0,0,1,39.68,5.62Z"/><path class="cls-59" d="M22.8,57a.34.34,0,1,1-.22-.43A.34.34,0,0,1,22.8,57Z"/><path class="cls-60" d="M55.21,19.31a.34.34,0,1,1,.15-.46A.34.34,0,0,1,55.21,19.31Z"/><path class="cls-61" d="M6.94,43.71a.35.35,0,0,1-.46-.16.34.34,0,0,1,.15-.46.35.35,0,0,1,.31.62Z"/><path class="cls-62" d="M42.81,55.49A.34.34,0,0,1,43,55a.35.35,0,0,1,.46.15.34.34,0,1,1-.61.31Z"/><path class="cls-63" d="M18.41,7.22a.35.35,0,1,1,.47.15A.35.35,0,0,1,18.41,7.22Z"/><path class="cls-64" d="M51,49.32a.34.34,0,1,1,.49,0A.34.34,0,0,1,51,49.32Z"/><path class="cls-65" d="M10.39,13.6a.34.34,0,1,1,.48,0A.35.35,0,0,1,10.39,13.6Z"/><path class="cls-66" d="M49,11.13a.35.35,0,1,1,0-.49A.36.36,0,0,1,49,11.13Z"/><path class="cls-67" d="M13.31,51.73a.34.34,0,1,1,0-.48A.34.34,0,0,1,13.31,51.73Z"/><path class="cls-68" d="M57.93,29.82a.35.35,0,0,1,0-.69.36.36,0,0,1,.37.32A.35.35,0,0,1,57.93,29.82Z"/><path class="cls-69" d="M4,33.27a.34.34,0,1,1,.32-.36A.34.34,0,0,1,4,33.27Z"/><path class="cls-70" d="M32.3,58.21a.34.34,0,0,1,.32-.36.35.35,0,0,1,.37.32.35.35,0,0,1-.69,0Z"/><path class="cls-71" d="M28.85,4.24a.35.35,0,0,1,.32-.37.34.34,0,0,1,.36.32.34.34,0,1,1-.68,0Z"/><path class="cls-4" d="M33,51.67l-3.79,0,0-4.23a8.58,8.58,0,0,1-5.53-3.24,11.39,11.39,0,0,1-2-7.1v-.31l6.59.06v.32a7.26,7.26,0,0,0,.72,3.67A2.3,2.3,0,0,0,31.17,42h0a2.09,2.09,0,0,0,1.74-.81,4.05,4.05,0,0,0,.68-2.45A4.44,4.44,0,0,0,33,36.15a6.55,6.55,0,0,0-2.24-1.82A20.94,20.94,0,0,1,26,31.5a9,9,0,0,1-2.36-3.15,10.12,10.12,0,0,1-.74-4.17,9,9,0,0,1,2.07-6A8.09,8.09,0,0,1,30,15.48L30,10.93l3.81,0,0,4.66A7.66,7.66,0,0,1,38.64,19a11.82,11.82,0,0,1,1.75,6.77V26L33.79,26v-.32A7.33,7.33,0,0,0,33.14,22a1.85,1.85,0,0,0-1.6-1.1h0a1.67,1.67,0,0,0-1.47.81,4.66,4.66,0,0,0-.61,2.52A4.16,4.16,0,0,0,30,26.58a7.32,7.32,0,0,0,2.36,2,21.42,21.42,0,0,1,4.88,3,8.78,8.78,0,0,1,2.26,3.12,10.33,10.33,0,0,1,.7,4.07,9,9,0,0,1-2,6A8.13,8.13,0,0,1,33,47.44ZM29.84,51l2.53,0,0-4.15.27,0a7.65,7.65,0,0,0,5-2.52,8.38,8.38,0,0,0,1.87-5.58,9.7,9.7,0,0,0-.66-3.82A8,8,0,0,0,36.84,32a21.58,21.58,0,0,0-4.76-2.92,7.75,7.75,0,0,1-2.59-2.2,4.76,4.76,0,0,1-.68-2.67,5.23,5.23,0,0,1,.71-2.86,2.34,2.34,0,0,1,2-1.09,2.43,2.43,0,0,1,2.14,1.42,7.53,7.53,0,0,1,.74,3.62l5.33.05a11,11,0,0,0-1.65-6.09,7.14,7.14,0,0,0-4.69-3.12l-.25-.05,0-4.54-2.55,0,0,4.47-.28,0a7.54,7.54,0,0,0-4.94,2.55,8.37,8.37,0,0,0-1.92,5.56,9.75,9.75,0,0,0,.69,3.92A8.38,8.38,0,0,0,26.37,31,20.44,20.44,0,0,0,31,33.77a7.18,7.18,0,0,1,2.47,2,5,5,0,0,1,.75,3h0a4.69,4.69,0,0,1-.82,2.83,2.68,2.68,0,0,1-2.24,1.06h0a2.94,2.94,0,0,1-2.66-1.51,7.52,7.52,0,0,1-.8-3.68l-5.34,0a10.62,10.62,0,0,0,1.86,6.39,8,8,0,0,0,5.39,3l.27,0Z"/><path class="cls-72" d="M32.71,51.43l-3.8,0L29,47.16a8.5,8.5,0,0,1-5.54-3.24,11.35,11.35,0,0,1-2-7.09v-.32l6.6.06v.32a7.34,7.34,0,0,0,.72,3.67,2.32,2.32,0,0,0,2.12,1.21h0A2.05,2.05,0,0,0,32.65,41a4,4,0,0,0,.69-2.45,4.35,4.35,0,0,0-.64-2.58,6.5,6.5,0,0,0-2.23-1.83,20.16,20.16,0,0,1-4.8-2.83,8.69,8.69,0,0,1-2.36-3.15,10.25,10.25,0,0,1-.75-4.17,9,9,0,0,1,2.07-6,8.11,8.11,0,0,1,5.08-2.73l0-4.55,3.81,0,0,4.65a7.71,7.71,0,0,1,4.83,3.33,11.77,11.77,0,0,1,1.75,6.77v.32l-6.6-.07v-.31a7.54,7.54,0,0,0-.65-3.62,1.86,1.86,0,0,0-1.6-1.11h0a1.68,1.68,0,0,0-1.47.82,4.6,4.6,0,0,0-.6,2.51,4.08,4.08,0,0,0,.58,2.32,7.21,7.21,0,0,0,2.36,2,21.85,21.85,0,0,1,4.88,3,8.72,8.72,0,0,1,2.25,3.11,10.22,10.22,0,0,1,.7,4.07,9,9,0,0,1-2,6,8.18,8.18,0,0,1-5.17,2.7Zm-3.16-.66,2.53,0,0-4.16.28,0a7.63,7.63,0,0,0,5-2.52,8.42,8.42,0,0,0,1.86-5.57,9.47,9.47,0,0,0-.65-3.82,8.19,8.19,0,0,0-2.1-2.9,21.37,21.37,0,0,0-4.75-2.91,7.87,7.87,0,0,1-2.59-2.2A4.72,4.72,0,0,1,28.53,24a5.27,5.27,0,0,1,.71-2.87,2.36,2.36,0,0,1,2-1.09,2.48,2.48,0,0,1,2.15,1.42,7.47,7.47,0,0,1,.73,3.63l5.33.05a11,11,0,0,0-1.64-6.1,7.16,7.16,0,0,0-4.69-3.12l-.26,0,0-4.54-2.55,0-.05,4.47-.27,0a7.57,7.57,0,0,0-4.95,2.55A8.43,8.43,0,0,0,23.19,24a9.55,9.55,0,0,0,.7,3.91,8.14,8.14,0,0,0,2.19,2.92,20.08,20.08,0,0,0,4.67,2.75,7,7,0,0,1,2.47,2A5,5,0,0,1,34,38.51h0a4.62,4.62,0,0,1-.82,2.83,2.7,2.7,0,0,1-2.24,1.06h0a2.91,2.91,0,0,1-2.66-1.52,7.49,7.49,0,0,1-.81-3.68l-5.33-.05a10.53,10.53,0,0,0,1.85,6.39,8,8,0,0,0,5.39,3l.27,0Z"/><path class="cls-73" d="M33.65,38.5A4.56,4.56,0,0,0,33,35.74a6.72,6.72,0,0,0-2.34-1.92A20.23,20.23,0,0,1,25.88,31a8.43,8.43,0,0,1-2.28-3,9.71,9.71,0,0,1-.72-4,8.64,8.64,0,0,1,2-5.76A7.83,7.83,0,0,1,30,15.52l0-4.51,3.19,0,0,4.59a7.45,7.45,0,0,1,4.89,3.26,11.44,11.44,0,0,1,1.7,6.59l-6-.06a7.58,7.58,0,0,0-.69-3.78,2.15,2.15,0,0,0-1.87-1.26,2,2,0,0,0-1.76.95A4.88,4.88,0,0,0,28.84,24a4.39,4.39,0,0,0,.63,2.49,7.32,7.32,0,0,0,2.47,2.09,21.69,21.69,0,0,1,4.83,3,8.53,8.53,0,0,1,2.17,3,10,10,0,0,1,.68,4,8.69,8.69,0,0,1-1.94,5.78,7.93,7.93,0,0,1-5.25,2.62l0,4.2-3.16,0,0-4.2a8.24,8.24,0,0,1-5.59-3.16,11,11,0,0,1-1.92-6.9l6,.06a7.52,7.52,0,0,0,.76,3.83,2.62,2.62,0,0,0,2.39,1.36,2.36,2.36,0,0,0,2-.94A4.27,4.27,0,0,0,33.65,38.5Z"/><g class="cls-74"><path class="cls-7" d="M47.69,4.72A31.05,31.05,0,0,0,34.15.16L8.65,9.66A31.2,31.2,0,0,0,1.44,22Z"/></g><g class="cls-75"><path class="cls-7" d="M2.24,42.65l58.4-21.76a31.65,31.65,0,0,0-2-4.52L.77,37.91A30.3,30.3,0,0,0,2.24,42.65Z"/></g><g class="cls-75"><path class="cls-7" d="M.3,35.36l57-21.22q-.52-.83-1.11-1.62L.14,33.39C.18,34.05.22,34.71.3,35.36Z"/></g><g class="cls-76"><path class="cls-7" d="M61.69,24.79c-.14-.65-.29-1.29-.46-1.92L3,44.55c.28.59.59,1.17.91,1.75Z"/></g><g class="cls-77"><path class="cls-7" d="M4.71,47.56A31.16,31.16,0,0,0,62.37,30.24a30.79,30.79,0,0,0-.4-4Z"/></g></g></g></svg>